# xmcd
#
# Track frame offsets: 
#        150
#        9400
#        17374
#        23486
#        31130
#        38503
#        48215
#        57974
#        67146
#        74947
#        85986
#        95989
#        107312
#        116199
#        124710
#        137144
#        146725
#
# Disc length: 2087 seconds
#
# Revision: 1
# Processed by: cddbd v1.5.2PL0 Copyright (c) Steve Scherf et al.
# Submitted via: ExactAudioCopyFreeDBPlugin 1.0
#
DISCID=e8082511
DTITLE=Pierre Perret - Les années Barclay - 1957 à 1959
DYEAR=2011
DGENRE=Variété française
TTITLE0=Qu'elle était jolie, qu'elle était belle
TTITLE1=Le prince
TTITLE2=Le poulet
TTITLE3=Le moulin à café
TTITLE4=Moi, j'attends Adèle
TTITLE5=Si j' t'envoie des fraises
TTITLE6=Si j'étais veuf
TTITLE7=C'est mon coeur
TTITLE8=La gamme
TTITLE9=Le sex-appeal d'Émile
TTITLE10=Ma compagne
TTITLE11=Onésime
TTITLE12=La chanson du malin
TTITLE13=Louise
TTITLE14=Quand il l'a connue
TTITLE15=Marie et moi
TTITLE16=Lisette
EXTD=Intégrale 1957 - 2011
EXTT0=
EXTT1=
EXTT2=
EXTT3=
EXTT4=
EXTT5=
EXTT6=
EXTT7=
EXTT8=
EXTT9=
EXTT10=
EXTT11=
EXTT12=
EXTT13=1959
EXTT14=1959
EXTT15=1959
EXTT16=1959
PLAYORDER=
